<svg width="64" height="64" viewBox="0 0 64 64" fill="none" xmlns="http://www.w3.org/2000/svg">
  <rect width="64" height="64" rx="12" fill="#3B82F6"/>
  <rect x="8" y="8" width="48" height="48" rx="8" fill="#FFFFFF"/>
  
  <!-- Display -->
  <rect x="12" y="12" width="40" height="12" rx="2" fill="#F3F4F6"/>
  <text x="48" y="21" text-anchor="end" font-family="monospace" font-size="8" fill="#1F2937">123</text>
  
  <!-- Buttons Grid -->
  <!-- Row 1 -->
  <rect x="12" y="28" width="8" height="6" rx="1" fill="#EF4444"/>
  <text x="16" y="32.5" text-anchor="middle" font-family="Arial" font-size="4" fill="white">C</text>
  
  <rect x="22" y="28" width="8" height="6" rx="1" fill="#6366F1"/>
  <text x="26" y="32.5" text-anchor="middle" font-family="Arial" font-size="4" fill="white">sin</text>
  
  <rect x="32" y="28" width="8" height="6" rx="1" fill="#8B5CF6"/>
  <text x="36" y="32.5" text-anchor="middle" font-family="Arial" font-size="4" fill="white">√</text>
  
  <rect x="42" y="28" width="8" height="6" rx="1" fill="#3B82F6"/>
  <text x="46" y="32.5" text-anchor="middle" font-family="Arial" font-size="4" fill="white">÷</text>
  
  <!-- Row 2 -->
  <rect x="12" y="36" width="8" height="6" rx="1" fill="#F3F4F6" stroke="#E5E7EB"/>
  <text x="16" y="40.5" text-anchor="middle" font-family="Arial" font-size="4" fill="#1F2937">7</text>
  
  <rect x="22" y="36" width="8" height="6" rx="1" fill="#F3F4F6" stroke="#E5E7EB"/>
  <text x="26" y="40.5" text-anchor="middle" font-family="Arial" font-size="4" fill="#1F2937">8</text>
  
  <rect x="32" y="36" width="8" height="6" rx="1" fill="#F3F4F6" stroke="#E5E7EB"/>
  <text x="36" y="40.5" text-anchor="middle" font-family="Arial" font-size="4" fill="#1F2937">9</text>
  
  <rect x="42" y="36" width="8" height="6" rx="1" fill="#3B82F6"/>
  <text x="46" y="40.5" text-anchor="middle" font-family="Arial" font-size="4" fill="white">×</text>
  
  <!-- Row 3 -->
  <rect x="12" y="44" width="8" height="6" rx="1" fill="#F3F4F6" stroke="#E5E7EB"/>
  <text x="16" y="48.5" text-anchor="middle" font-family="Arial" font-size="4" fill="#1F2937">4</text>
  
  <rect x="22" y="44" width="8" height="6" rx="1" fill="#F3F4F6" stroke="#E5E7EB"/>
  <text x="26" y="48.5" text-anchor="middle" font-family="Arial" font-size="4" fill="#1F2937">5</text>
  
  <rect x="32" y="44" width="8" height="6" rx="1" fill="#F3F4F6" stroke="#E5E7EB"/>
  <text x="36" y="48.5" text-anchor="middle" font-family="Arial" font-size="4" fill="#1F2937">6</text>
  
  <rect x="42" y="44" width="8" height="6" rx="1" fill="#3B82F6"/>
  <text x="46" y="48.5" text-anchor="middle" font-family="Arial" font-size="4" fill="white">-</text>
  
  <!-- Row 4 -->
  <rect x="12" y="52" width="18" height="6" rx="1" fill="#10B981"/>
  <text x="21" y="56.5" text-anchor="middle" font-family="Arial" font-size="4" fill="white">=</text>
  
  <rect x="32" y="52" width="8" height="6" rx="1" fill="#F3F4F6" stroke="#E5E7EB"/>
  <text x="36" y="56.5" text-anchor="middle" font-family="Arial" font-size="4" fill="#1F2937">0</text>
  
  <rect x="42" y="52" width="8" height="6" rx="1" fill="#3B82F6"/>
  <text x="46" y="56.5" text-anchor="middle" font-family="Arial" font-size="4" fill="white">+</text>
</svg>